<svg xmlns="http://www.w3.org/2000/svg" shape-rendering="geometricPrecision" text-rendering="geometricPrecision" image-rendering="optimizeQuality" fill-rule="evenodd" clip-rule="evenodd" viewBox="0 0 512 475.12"><path fill-rule="nonzero" d="M69.71 105.13c31.94 10.66 76.39 17.26 125.77 17.26 49.38 0 93.83-6.6 125.77-17.26 28.03-9.36 45.38-20.68 45.38-31.76 0-11.08-17.35-22.42-45.38-31.77-31.94-10.67-76.39-17.26-125.77-17.26-49.38 0-93.83 6.59-125.77 17.26-59.48 19.85-61.12 43.13 0 63.53zm314.23 65.85c22.71 14.4 44.89 25.55 65.6 32.51 19.24 6.46 37.19 9.34 53.09 7.89l8.43-.77.41 8.46c3.05 61.74-7.16 112.01-28.1 151.1-21.88 40.85-59.19 73.54-103.42 88.13-45.13-16-79.35-44.32-101.98-86.76-20.69-38.8-31.51-89.66-29.82-154.15l.22-8.35 8.3.43c21.53 1.13 42.19-1.59 61.73-7.88 19.86-6.39 38.67-16.55 56.19-30.16l4.52-3.51 4.83 3.06zm-43.09 122.26h3.89v-9.02c0-9.99 3.94-19.09 10.28-25.71 6.4-6.66 15.23-10.81 24.95-10.81 9.73 0 18.57 4.14 24.96 10.81 6.35 6.62 10.29 15.72 10.29 25.71v9.02h3.89c3.16 0 5.75 2.59 5.75 5.75v60.76c0 3.16-2.59 5.74-5.75 5.74h-78.26c-3.17 0-5.75-2.58-5.75-5.74v-60.76c-.01-3.16 2.58-5.75 5.75-5.75zm34.41 38.81-6.21 16.24h21.84l-5.74-16.47c3.65-1.87 6.14-5.68 6.14-10.06 0-6.25-5.07-11.32-11.32-11.32-6.24 0-11.31 5.07-11.31 11.32 0 4.56 2.71 8.49 6.6 10.29zm-19.64-38.81h48.71v-9.02c0-7.1-2.77-13.53-7.23-18.18-4.41-4.6-10.47-7.45-17.13-7.45-6.65 0-12.72 2.85-17.12 7.45-4.46 4.65-7.23 11.08-7.23 18.18v9.02zm86.73-71.32c-19.93-6.7-40.95-17.01-62.33-30.18-17.12 12.61-35.47 22.16-54.86 28.4-18.24 5.87-37.4 8.8-57.27 8.61-.53 55.86 9.24 99.94 27.17 133.59 19.45 36.46 48.67 60.79 84.95 74.67 37.3-14.69 66.91-39.92 86.23-75.99 18.06-33.74 27.29-77.08 25.67-130.31-15.43.16-32.11-2.93-49.56-8.79zm-197.89 143.3c-15.65 1.41-32.07 2.17-48.98 2.17-51.86 0-99.07-7.1-133.47-18.58-14.84-4.96-27.49-10.89-37.43-17.62v72.88c2.22 10.33 19.04 20.75 45.13 29.46 31.94 10.65 76.39 17.25 125.77 17.25 36.79 0 70.84-3.66 99.02-9.93 7.12 6.96 14.71 13.37 22.76 19.27-33.06 9.36-75.57 15-121.78 15-51.86 0-99.07-7.11-133.47-18.59C43.87 450.47.25 430.57.25 406.79V399C.25 290.45 0 181.89 0 73.37c0-22.72 23.7-41.99 62.01-54.78C96.41 7.11 143.62 0 195.48 0c51.85 0 99.07 7.11 133.47 18.59 34.87 11.64 57.63 28.65 61.44 48.74.46 1.28.7 2.66.7 4.09v70.29c-3.84-2.29-7.74-4.68-11.69-7.18-4.24 3.29-8.46 6.37-12.64 9.23v-33.5c-9.98 6.83-22.77 12.86-37.81 17.87-34.4 11.49-81.62 18.59-133.47 18.59-51.86 0-99.07-7.1-133.47-18.59-14.84-4.95-27.49-10.88-37.43-17.61v78.11c2.22 10.33 19.04 20.75 45.13 29.45 31.94 10.66 76.39 17.26 125.77 17.26 7.74 0 15.36-.16 22.82-.48.43 8.31 1.01 16.4 1.76 24.28-8.05.35-16.25.54-24.58.54-51.86 0-99.07-7.11-133.47-18.59-14.84-4.96-27.49-10.89-37.43-17.62v72.88c2.22 10.33 19.04 20.75 45.13 29.45 31.94 10.66 76.39 17.26 125.77 17.26 13.93 0 27.47-.53 40.44-1.52 2.59 8.24 5.43 16.13 8.54 23.68z"/></svg>