<?xml version="1.0" encoding="utf-8"?>
<!-- Generator: Adobe Illustrator 16.0.0, SVG Export Plug-In . SVG Version: 6.00 Build 0)  -->
<!DOCTYPE svg PUBLIC "-//W3C//DTD SVG 1.1//EN" "http://www.w3.org/Graphics/SVG/1.1/DTD/svg11.dtd">
<svg version="1.1" id="Multiple_Services" xmlns="http://www.w3.org/2000/svg" xmlns:xlink="http://www.w3.org/1999/xlink" x="0px"
	 y="0px" width="512px" height="512px" viewBox="0 0 512 512" enable-background="new 0 0 512 512" xml:space="preserve">
<circle id="Background_26_" fill="#7F499C" cx="256" cy="256" r="256"/>
<path id="Shadow_27_" opacity="0.1" d="M511.941,260.632L377.442,127.48l-10.275,5.687L124.826,386.161l126.393,125.778
	C252.81,511.969,254.401,512,256,512C395.836,512,509.469,399.877,511.941,260.632z"/>
<g>
	<g>
		<g>
			<rect x="137.268" y="129.799" fill-rule="evenodd" clip-rule="evenodd" fill="#EFB742" width="237.467" height="126.446"/>
			<rect x="154.565" y="144.595" fill-rule="evenodd" clip-rule="evenodd" fill="#E8843D" width="202.872" height="153.692"/>
			<polygon fill-rule="evenodd" clip-rule="evenodd" fill="#F1F2F2" points="150.773,127.792 139.608,127.792 135.143,127.792 
				135.143,132.257 135.143,143.422 139.608,143.422 139.608,132.257 150.773,132.257 			"/>
			<polygon fill-rule="evenodd" clip-rule="evenodd" fill="#F1F2F2" points="361.229,127.792 372.393,127.792 376.86,127.792 
				376.86,132.257 376.86,143.422 372.393,143.422 372.393,132.257 361.229,132.257 			"/>
		</g>
		<rect x="243.033" y="124.628" fill="#3E3C5D" width="25.938" height="5.17"/>
	</g>
	<g>
		<g>
			<path fill="#504756" d="M324.119,341.479c0-6.312,4.636-11.43,10.348-11.43c5.716,0,10.348,5.118,10.348,11.43
				c0,6.32-4.632,11.438-10.348,11.438C328.755,352.916,324.119,347.799,324.119,341.479z"/>
		</g>
		<g>
			<rect x="325.687" y="221.167" fill="#504756" width="19.128" height="27.285"/>
		</g>
		<g>
			<path fill="#F1F2F2" d="M319.341,250.339c0-6.235,5.05-11.291,11.29-11.291h8.773c6.243,0,11.292,5.056,11.292,11.291v87.18
				c0,6.242-5.049,11.289-11.292,11.289h-8.773c-6.24,0-11.29-5.047-11.29-11.289V250.339z"/>
		</g>
		<g>
			<rect x="328.593" y="239.048" fill="#B1B1B4" width="12.853" height="109.76"/>
		</g>
		<g>
			<rect x="328.593" y="216.466" fill="#312C38" width="12.774" height="4.701"/>
		</g>
		<g>
			<polygon fill="#DFDFDF" points="331.65,145.334 335.098,141.558 338.468,145.347 337.608,155.583 337.608,216.466 
				332.585,216.466 332.585,155.404 			"/>
		</g>
		<g>
			<polygon fill="#504756" points="335.098,142.027 334.642,142.325 334.642,147.685 335.316,147.685 335.316,142.179 			"/>
		</g>
	</g>
	<g>
		<polygon fill="#F1F2F2" points="296.547,236.503 299.071,243.002 273.976,243.002 276.499,236.503 		"/>
		<rect x="279.142" y="156.543" fill="#F1F2F2" width="14.763" height="73.318"/>
		<g>
			<path fill="#3E3C5D" d="M299.05,181.269c0,1.359-1.103,2.46-2.462,2.46h-20.174c-1.359,0-2.462-1.102-2.462-2.46v-20.174
				c0-1.359,1.103-2.46,2.462-2.46h20.174c1.359,0,2.462,1.102,2.462,2.46V181.269z"/>
			<path fill="#3E3C5D" d="M304.695,161.973c0,0-25.592,0-34.122,0c-1.702,0-20.901,1.722-22.674,32.477
				c2.045-4.78,14.844-14.435,23.063-14.435c8.029,0,33.732,0,33.732,0V161.973z"/>
			<path fill="#3E3C5D" d="M322.41,181.269c0,1.359-1.102,2.46-2.462,2.46h-13.94c-1.359,0-2.462-1.102-2.462-2.46v-20.174
				c0-1.359,1.103-2.46,2.462-2.46h13.94c1.36,0,2.462,1.102,2.462,2.46V181.269z"/>
		</g>
		<rect x="276.499" y="226.849" fill="#3E3C5D" width="20.048" height="9.654"/>
		<path fill="#3E3C5D" d="M299.071,319.294c0,1.358-1.102,2.459-2.46,2.459h-20.177c-1.356,0-2.459-1.101-2.459-2.459v-75.533
			c0-1.359,1.103-2.46,2.459-2.46h20.177c1.358,0,2.46,1.102,2.46,2.46V319.294z"/>
	</g>
	<g>
		<polygon fill-rule="evenodd" clip-rule="evenodd" fill="#F1F2F2" points="234.168,127.309 229.814,127.309 229.814,153.844 
			212.404,153.844 212.404,127.309 208.052,127.309 194.992,149.928 208.052,172.547 234.168,172.547 247.228,149.928 		"/>
		<polygon fill-rule="evenodd" clip-rule="evenodd" fill="#F1F2F2" points="234.1,178.537 231.75,178.537 231.75,175.542 
			210.47,175.542 210.47,178.537 208.12,178.537 210.47,179.57 210.47,256.245 231.75,256.245 231.75,179.57 		"/>
		<rect x="208.12" y="172.547" fill-rule="evenodd" clip-rule="evenodd" fill="#3E3C5D" width="25.98" height="5.99"/>
		<polygon opacity="0.1" fill-rule="evenodd" clip-rule="evenodd" fill="#231F20" points="234.168,127.309 229.814,127.309 
			229.814,153.844 221.11,153.844 221.11,256.245 231.75,256.245 231.75,179.57 234.1,178.537 234.1,172.547 234.168,172.547 
			247.228,149.928 		"/>
	</g>
	<g>
		<g>
			<path fill="#E4E6E6" d="M179.137,199.074h-8.468l-4.362-2.939v-21.766c-6.933,3.204-11.742,10.205-11.742,18.342
				c0,8.137,4.809,15.144,11.742,18.348v35.888h-0.008v56.387c-6.929,3.203-11.734,10.212-11.734,18.347
				c0,8.14,4.809,15.149,11.734,18.348v-21.771l4.11-2.926h8.49l4.351,2.926v21.771c6.934-3.198,11.742-10.208,11.742-18.348
				c0-8.135-4.808-15.144-11.742-18.347v-35.882h0.009v-56.394c6.928-3.204,11.733-10.21,11.733-18.348
				c0-8.137-4.801-15.138-11.733-18.342v21.766L179.137,199.074z"/>
			<rect x="172.314" y="211.963" fill="#FFFFFF" width="4.667" height="90.234"/>
		</g>
	</g>
	<g>
		<rect x="124.961" y="256.245" fill-rule="evenodd" clip-rule="evenodd" fill="#EFB742" width="262.079" height="129.458"/>
		<rect x="124.961" y="256.245" fill-rule="evenodd" clip-rule="evenodd" fill="#E8843D" width="262.079" height="8.084"/>
		<rect x="235.939" y="256.245" fill-rule="evenodd" clip-rule="evenodd" fill="#3E3C5D" width="40.122" height="42.993"/>
		<rect x="245.519" y="292.7" fill-rule="evenodd" clip-rule="evenodd" fill="#F1F2F2" width="20.964" height="3.719"/>
		<rect x="245.519" y="258.891" fill-rule="evenodd" clip-rule="evenodd" fill="#F1F2F2" width="20.964" height="3.719"/>
		<g>
			<circle fill-rule="evenodd" clip-rule="evenodd" fill="#F1F2F2" cx="239.01" cy="258.891" r="1.691"/>
			<circle fill-rule="evenodd" clip-rule="evenodd" fill="#F1F2F2" cx="272.99" cy="258.891" r="1.691"/>
			<circle fill-rule="evenodd" clip-rule="evenodd" fill="#F1F2F2" cx="239.01" cy="296.419" r="1.691"/>
			<circle fill-rule="evenodd" clip-rule="evenodd" fill="#F1F2F2" cx="272.99" cy="296.419" r="1.691"/>
		</g>
	</g>
	<g>
		<path fill-rule="evenodd" clip-rule="evenodd" fill="#F1F2F2" d="M367.803,365.662v21.688c0.148,0.013,0.299,0.021,0.449,0.021
			h16.021c2.481,0,4.49-2.012,4.49-4.491v-16.021c0-0.414-0.059-0.816-0.165-1.197H367.803z"/>
		<circle fill-rule="evenodd" clip-rule="evenodd" fill="#D1D3D4" cx="369.945" cy="367.873" r="1.241"/>
		<polygon opacity="0.2" fill-rule="evenodd" clip-rule="evenodd" fill="#231F20" points="367.803,385.703 365.21,385.703 
			367.803,365.662 		"/>
	</g>
	<g>
		<path fill-rule="evenodd" clip-rule="evenodd" fill="#F1F2F2" d="M144.198,365.662v21.688c-0.148,0.013-0.299,0.021-0.449,0.021
			h-16.021c-2.481,0-4.493-2.012-4.493-4.491v-16.021c0-0.414,0.061-0.816,0.167-1.197H144.198z"/>
		<circle fill-rule="evenodd" clip-rule="evenodd" fill="#D1D3D4" cx="142.057" cy="367.873" r="1.24"/>
		<polygon opacity="0.2" fill-rule="evenodd" clip-rule="evenodd" fill="#231F20" points="144.198,385.703 146.791,385.703 
			144.198,365.662 		"/>
	</g>
</g>
</svg>
