<?xml version="1.0" encoding="utf-8"?>
<!-- Generator: Adobe Illustrator 22.0.1, SVG Export Plug-In . SVG Version: 6.00 Build 0)  -->
<svg version="1.1" id="Layer_1" xmlns="http://www.w3.org/2000/svg" xmlns:xlink="http://www.w3.org/1999/xlink" x="0px" y="0px"
	 viewBox="0 0 512 512" style="enable-background:new 0 0 512 512;" xml:space="preserve">
<style type="text/css">
	.st0{fill:#35216D;}
	.st1{fill:#EDF3FC;}
	.st2{fill:#330D84;}
	.st3{fill:#FFBE1B;}
	.st4{fill:#0061F3;}
	.st5{fill:#8C7BFD;}
	.st6{fill:#FFFFFF;}
	.st7{fill:#5932AE;}
	.st8{fill:#1C46C4;}
	.st9{fill:#6857E5;}
	.st10{fill:#5D8EF9;}
	.st11{fill:#8AC9F9;}
	.st12{fill:#FFE37B;}
	.st13{fill:#FFD000;}
	.st14{fill:#2EF39E;}
	.st15{fill:#330D84;stroke:#330D84;stroke-width:0.6306;stroke-linecap:round;stroke-linejoin:round;stroke-miterlimit:10;}
	.st16{fill:#FFFFFF;stroke:#FFFFFF;stroke-width:0.737;stroke-linecap:round;stroke-linejoin:round;stroke-miterlimit:10;}
	.st17{fill:none;}
	.st18{fill:#FDB813;}
</style>
<g>
	<g>
		<g>
			<path class="st1" d="M255.999,40.928c-118.778,0-215.071,96.294-215.071,215.074c0,118.776,96.292,215.068,215.071,215.068
				S471.07,374.778,471.07,256.002C471.07,137.222,374.777,40.928,255.999,40.928z"/>
		</g>
	</g>
	<g>
		<g>
			<path class="st1" d="M255.999,1C115.391,1,1,115.392,1,256.002C1,396.609,115.391,511,255.999,511S511,396.609,511,256.002
				C511,115.392,396.607,1,255.999,1z M255.999,502.832c-136.103,0-246.83-110.728-246.83-246.83
				c0-136.104,110.727-246.833,246.83-246.833c136.102,0,246.832,110.729,246.832,246.833
				C502.831,392.104,392.101,502.832,255.999,502.832z"/>
		</g>
	</g>
	<path class="st11" d="M381.407,207.456c0,0-63.93,0-81.964,0c-9.08,0-10.778-7.191-7.534-16.765
		c3.198-9.442,6.567-21.166,6.567-35.865c0-18.414-10.757-41.97-28.877-41.97c-11.236,0-7.264,32.144-22.979,66.615
		c-8.754,19.201-31.548,51.729-41.031,60.3v96.463c4.617,7.395,17.269,23.91,38.191,23.91c19.279,0,106.609-0.065,106.609-0.065
		c27.754,0,28.066-34.917,9.716-37.921l4.978,0.175c17.566-1.894,24.937-33.098,2.472-38.779l4.189-0.076
		c16.783-1.763,24.489-31.634,1.11-38.294l5.55-0.562C403.335,244.272,404.982,207.521,381.407,207.456z"/>
	<g>
		<path class="st3" d="M205.588,230.008v118.035c0,6.687-5.429,12.102-12.103,12.102H148.35c-6.688,0-12.102-5.415-12.102-12.102
			V230.008c0-6.673,5.414-12.103,12.102-12.103h45.135C200.159,217.905,205.588,223.335,205.588,230.008z"/>
		<circle class="st6" cx="183.037" cy="241.202" r="9.263"/>
	</g>
	<g>
		<g>
			<path class="st3" d="M134.72,197.438c-8.948-2.24-15.931-9.227-18.176-18.173l-0.38-1.527l-0.385,1.527
				c-2.241,8.946-9.228,15.933-18.173,18.173l-1.528,0.384l1.528,0.385c8.946,2.241,15.933,9.226,18.173,18.171l0.385,1.526
				l0.38-1.526c2.246-8.946,9.228-15.931,18.176-18.171l1.528-0.385L134.72,197.438z"/>
		</g>
	</g>
	<g>
		<g>
			<path class="st3" d="M204.324,156.354c-13.499-3.38-24.033-13.92-27.42-27.417l-0.573-2.304l-0.58,2.304
				c-3.38,13.497-13.921,24.037-27.417,27.417l-2.304,0.58l2.304,0.58c13.496,3.38,24.036,13.918,27.417,27.414l0.58,2.303
				l0.573-2.303c3.387-13.496,13.922-24.033,27.42-27.414l2.305-0.58L204.324,156.354z"/>
		</g>
	</g>
	<g>
		<g>
			<path class="st10" d="M287.335,400.495c-12.809-3.207-22.806-13.209-26.02-26.017l-0.543-2.186l-0.551,2.186
				c-3.208,12.808-13.21,22.81-26.017,26.017l-2.187,0.55l2.187,0.55c12.807,3.208,22.809,13.208,26.017,26.014l0.551,2.185
				l0.543-2.185c3.214-12.806,13.211-22.806,26.02-26.014l2.187-0.55L287.335,400.495z"/>
		</g>
	</g>
	<g>
		<g>
			<path class="st2" d="M385.9,157.943c-12.245-3.065-21.801-12.627-24.874-24.87l-0.52-2.09l-0.526,2.09
				c-3.066,12.243-12.628,21.805-24.87,24.87l-2.09,0.526l2.09,0.526c12.242,3.066,21.804,12.625,24.87,24.867l0.526,2.089
				l0.52-2.089c3.073-12.242,12.629-21.801,24.874-24.867l2.091-0.526L385.9,157.943z"/>
		</g>
	</g>
	<g>
		<g>
			<path class="st10" d="M332.038,385.9c-5.755-1.441-10.246-5.935-11.69-11.689l-0.244-0.982l-0.247,0.982
				c-1.441,5.754-5.935,10.248-11.689,11.689l-0.983,0.247l0.983,0.248c5.754,1.441,10.248,5.934,11.689,11.688l0.247,0.981
				l0.244-0.981c1.444-5.754,5.936-10.247,11.69-11.688l0.983-0.248L332.038,385.9z"/>
		</g>
	</g>
</g>
</svg>
