<?xml version="1.0" encoding="utf-8"?>
<!-- Generator: Adobe Illustrator 24.0.0, SVG Export Plug-In . SVG Version: 6.00 Build 0)  -->
<svg version="1.1" xmlns="http://www.w3.org/2000/svg" xmlns:xlink="http://www.w3.org/1999/xlink" x="0px" y="0px"
	 viewBox="0 0 64 64" enable-background="new 0 0 64 64" xml:space="preserve">
<g id="Captions">
</g>
<g id="Icons">
	<g>
		<g>
			<g>
				<g>
					<path fill="#C80A50" d="M33,36h-2c-2.761,0-5,2.239-5,5v10c0,0.552,0.448,1,1,1h10c0.552,0,1-0.448,1-1V41
						C38,38.239,35.761,36,33,36z"/>
				</g>
				<g>
					<path fill="#C80A50" d="M40,60H24v-6c0-2.209,1.791-4,4-4h8c2.209,0,4,1.791,4,4V60z"/>
				</g>
				<g>
					<path fill="#00A0C8" d="M28,50c0,2.209,1.791,4,4,4s4-1.791,4-4H28z"/>
				</g>
				<g>
					<path fill="#D2AA82" d="M32,52L32,52c-1.105,0-2-0.895-2-2v-3h4v3C34,51.105,33.105,52,32,52z"/>
				</g>
				<g>
					<path fill="#F0C8A0" d="M33,48h-2c-1.657,0-3-1.343-3-3v-3c0-1.105,0.895-2,2-2h1v0c0,1.105,0.895,2,2,2h3v3
						C36,46.657,34.657,48,33,48z"/>
				</g>
			</g>
			<g>
				<g>
					<path fill="#FAB400" d="M24,60H8v-9c0-1.657,1.343-3,3-3h10c1.657,0,3,1.343,3,3V60z"/>
				</g>
				<g>
					<path fill="#00A0C8" d="M12,48c0,2.209,1.791,4,4,4s4-1.791,4-4H12z"/>
				</g>
				<g>
					<path fill="#A00028" d="M24,54v6h1v-8.645C24.378,52.06,24,52.986,24,54z"/>
				</g>
				<g>
					<path fill="#D2AA82" d="M16,50L16,50c-1.105,0-2-0.895-2-2v-3h4v3C18,49.105,17.105,50,16,50z"/>
				</g>
				<g>
					<path fill="#F0C8A0" d="M17,46h-2c-1.657,0-3-1.343-3-3v-3c0-1.105,0.895-2,2-2h4c1.105,0,2,0.895,2,2v3
						C20,44.657,18.657,46,17,46z"/>
				</g>
				<g>
					<path fill="#0A5078" d="M18,38h-4c-1.105,0-2,0.895-2,2v0v-2c0-1.105,0.895-2,2-2h4c1.105,0,2,0.895,2,2v2v0
						C20,38.895,19.105,38,18,38z"/>
				</g>
			</g>
			<g>
				<g>
					<path fill="#00A0C8" d="M56,60H40v-9c0-1.657,1.343-3,3-3h10c1.657,0,3,1.343,3,3V60z"/>
				</g>
				<g>
					<path fill="#0A5078" d="M44,48c0,2.209,1.791,4,4,4s4-1.791,4-4H44z"/>
				</g>
				<g>
					<path fill="#0082AA" d="M40.5,49.342C40.184,49.817,40,50.387,40,51v9h1v-9C41,50.387,40.816,49.817,40.5,49.342z"/>
				</g>
				<g>
					<path fill="#D2AA82" d="M48,50L48,50c-1.105,0-2-0.895-2-2v-3h4v3C50,49.105,49.105,50,48,50z"/>
				</g>
				<g>
					<path fill="#F0C8A0" d="M49,46h-2c-1.657,0-3-1.343-3-3v-3c0-1.105,0.895-2,2-2h4c1.105,0,2,0.895,2,2v3
						C52,44.657,50.657,46,49,46z"/>
				</g>
				<g>
					<path fill="#DC9600" d="M50,38h-4c-1.105,0-2,0.895-2,2v0v-2c0-1.105,0.895-2,2-2h4c1.105,0,2,0.895,2,2v2v0
						C52,38.895,51.105,38,50,38z"/>
				</g>
			</g>
		</g>
		<g>
			<g>
				<rect x="30" y="20" fill="#FAB400" width="4" height="9"/>
			</g>
			<g>
				<path fill="#DC9600" d="M30,22.738C30.64,22.903,31.308,23,32,23s1.36-0.097,2-0.262V20h-4V22.738z"/>
			</g>
			<g>
				<path fill="#DC9600" d="M38,20h-2v-2h2c3.309,0,6-2.691,6-6v-2h-4V8h4c1.103,0,2,0.897,2,2v2C46,16.411,42.411,20,38,20z"/>
			</g>
			<g>
				<path fill="#DC9600" d="M28,20h-2c-4.411,0-8-3.589-8-8v-2c0-1.103,0.897-2,2-2h4v2h-4v2c0,3.309,2.691,6,6,6h2V20z"/>
			</g>
			<g>
				<path fill="#FAB400" d="M32,22L32,22c-4.418,0-8-3.582-8-8V4h16v10C40,18.418,36.418,22,32,22z"/>
			</g>
			<g>
				<path fill="#00A0C8" d="M41,6H23c-0.552,0-1-0.448-1-1v0c0-0.552,0.448-1,1-1h18c0.552,0,1,0.448,1,1v0C42,5.552,41.552,6,41,6z
					"/>
			</g>
			<g>
				<path fill="#00A0C8" d="M38,32H26v0c0-1.657,1.343-3,3-3h6C36.657,29,38,30.343,38,32L38,32z"/>
			</g>
			<g>
				<rect x="24" y="6" fill="#DC9600" width="16" height="1"/>
			</g>
			<g>
				<path fill="#BE7800" d="M32.448,9.908l1.021,2.069l2.283,0.332c0.41,0.06,0.574,0.564,0.277,0.853l-1.652,1.61l0.39,2.274
					c0.07,0.408-0.359,0.72-0.725,0.527L32,16.5l-2.042,1.074c-0.367,0.193-0.796-0.119-0.725-0.527l0.39-2.274l-1.652-1.61
					c-0.297-0.289-0.133-0.793,0.277-0.853l2.283-0.332l1.021-2.069C31.735,9.537,32.265,9.537,32.448,9.908z"/>
			</g>
			<g>
				<g>
					<path fill="#FAB400" d="M56,17h-6c-0.553,0-1-0.448-1-1s0.447-1,1-1h6c0.553,0,1,0.448,1,1S56.553,17,56,17z"/>
				</g>
				<g>
					<path fill="#FAB400" d="M51.999,24c-0.209,0-0.419-0.065-0.599-0.2l-4-3c-0.442-0.331-0.532-0.958-0.2-1.4
						c0.331-0.44,0.958-0.531,1.399-0.2l4,3c0.442,0.331,0.532,0.958,0.2,1.4C52.604,23.862,52.304,24,51.999,24z"/>
				</g>
				<g>
					<path fill="#FAB400" d="M55.999,27c-0.209,0-0.419-0.065-0.599-0.2l-1-0.75c-0.442-0.331-0.532-0.958-0.2-1.4
						c0.331-0.441,0.959-0.532,1.399-0.2l1,0.75c0.442,0.331,0.532,0.958,0.2,1.4C56.604,26.862,56.304,27,55.999,27z"/>
				</g>
				<g>
					<path fill="#FAB400" d="M44,27c-0.553,0-1-0.448-1-1v-2c0-0.552,0.447-1,1-1s1,0.448,1,1v2C45,26.552,44.553,27,44,27z"/>
				</g>
			</g>
			<g>
				<g>
					<path fill="#FAB400" d="M14,17H8c-0.553,0-1-0.448-1-1s0.447-1,1-1h6c0.553,0,1,0.448,1,1S14.553,17,14,17z"/>
				</g>
				<g>
					<path fill="#FAB400" d="M12.001,24c-0.305,0-0.604-0.138-0.801-0.4c-0.332-0.442-0.242-1.069,0.2-1.4l4-3
						c0.441-0.333,1.067-0.241,1.399,0.2c0.332,0.442,0.242,1.069-0.2,1.4l-4,3C12.42,23.935,12.21,24,12.001,24z"/>
				</g>
				<g>
					<path fill="#FAB400" d="M8.001,27c-0.305,0-0.604-0.138-0.801-0.4c-0.332-0.442-0.242-1.069,0.2-1.4l1-0.75
						c0.44-0.333,1.068-0.242,1.399,0.2c0.332,0.442,0.242,1.069-0.2,1.4l-1,0.75C8.42,26.935,8.21,27,8.001,27z"/>
				</g>
				<g>
					<path fill="#FAB400" d="M20,27c-0.553,0-1-0.448-1-1v-2c0-0.552,0.447-1,1-1s1,0.448,1,1v2C21,26.552,20.553,27,20,27z"/>
				</g>
			</g>
		</g>
	</g>
</g>
</svg>
