<?xml version="1.0" encoding="UTF-8"?>
<!DOCTYPE svg PUBLIC "-//W3C//DTD SVG 1.1//EN" "http://www.w3.org/Graphics/SVG/1.1/DTD/svg11.dtd">
<!-- Creator: CorelDRAW -->
<svg xmlns="http://www.w3.org/2000/svg" xml:space="preserve" width="6.82666in" height="6.82666in" style="shape-rendering:geometricPrecision; text-rendering:geometricPrecision; image-rendering:optimizeQuality; fill-rule:evenodd; clip-rule:evenodd"
viewBox="0 0 6.82666 6.82666"
 xmlns:xlink="http://www.w3.org/1999/xlink">
 <defs>
  <style type="text/css">
   <![CDATA[
    .fil0 {fill:#FF9800}
    .fil1 {fill:#FFFFFE}
   ]]>
  </style>
 </defs>
 <g id="Layer_x0020_1">
  <metadata id="CorelCorpID_0Corel-Layer"/>
  <rect class="fil0" width="6.82666" height="6.82666" rx="0.853335" ry="0.853335"/>
  <path class="fil1" d="M5.83663 3.41636l0 0zm0.0463228 0.428299l0 0zm-4.86297 -2.33457l0 0zm1.25169 -0.369701c0.451028,0.0362087 0.861421,0.170547 0.896713,0.19802l0 0.000413386 2.66829 2.07757c0.0666811,0.051937 0.104039,0.127831 0.110508,0.208256 0.00599213,0.0744173 -0.0150197,0.15335 -0.0643819,0.21989l0.00015748 0.000122047 -0.005 0.00625197 -1.33812 1.7186c-0.0526142,0.0675709 -0.126327,0.10937 -0.202669,0.12226 -0.079378,0.0133976 -0.162051,-0.00427559 -0.228815,-0.0562559l-2.66824 -2.07753c-0.0386811,-0.0301181 -0.263878,-0.40037 -0.412531,-0.821843 -0.151118,-0.428437 -0.23548,-0.924567 -0.00741339,-1.22591l-0.000181102 -0.000137795 0.005 -0.00625197c0.26828,-0.344547 0.787071,-0.400346 1.24669,-0.363449zm-0.492925 0.509157c0.0671614,0.0522953 0.10676,0.126713 0.116469,0.20474 0.00967323,0.0777205 -0.010563,0.159472 -0.0629882,0.226803 -0.0522953,0.0671614 -0.126713,0.10676 -0.20474,0.116469 -0.0777205,0.00967323 -0.159472,-0.010563 -0.226803,-0.0629882 -0.0671654,-0.0522953 -0.10676,-0.126717 -0.116469,-0.20474 -0.00967323,-0.0777165 0.0105591,-0.159465 0.0629882,-0.226799 0.0522953,-0.0671614 0.126717,-0.10676 0.20474,-0.116472 0.0777165,-0.00967323 0.159461,0.0105591 0.226803,0.0629882zm0.629531 0.321764c-0.0424016,0.0550984 -0.0728622,0.109697 -0.0917087,0.163547 -0.0185354,0.0540984 -0.0294449,0.107433 -0.0318622,0.160165 -0.00273228,0.0524921 -0.00096063,0.104362 0.00555512,0.155295 0.00620079,0.050685 0.0134685,0.100654 0.0214213,0.149098 0.00826378,0.0486811 0.0135276,0.0960591 0.0157913,0.142138 0.00283071,0.0459961 -0.00133858,0.0906693 -0.0113819,0.133862 -0.0103543,0.0429449 -0.0303268,0.0840709 -0.0607362,0.123772 -0.0247244,0.0317559 -0.0490827,0.0540118 -0.072815,0.0664449 -0.0237362,0.012437 -0.0466614,0.0167402 -0.0693386,0.0129961 -0.0224252,-0.00406299 -0.0449843,-0.0144134 -0.0666063,-0.0317677 -0.0221181,-0.0167047 -0.0379291,-0.0357126 -0.047122,-0.0567835 -0.00919291,-0.0210669 -0.0106378,-0.0443465 -0.00440157,-0.0704094 0.00624016,-0.0260551 0.0215984,-0.0548031 0.0465709,-0.0868819l0.0749291 -0.0962323 -0.194965 -0.151803 -0.064437 0.0827598c-0.0561969,0.0721772 -0.0920906,0.142126 -0.108185,0.210488 -0.0160906,0.0683701 -0.011689,0.133622 0.0131929,0.195764 0.0251378,0.0618228 0.0714488,0.119004 0.138685,0.171874 0.0677402,0.0522244 0.134531,0.0831063 0.20063,0.0923189 0.0663465,0.0088937 0.130685,-0.00283858 0.19302,-0.0352008 0.0623346,-0.0323583 0.12135,-0.0843071 0.177547,-0.15648 0.0423937,-0.0550984 0.0728622,-0.109693 0.0917087,-0.163551 0.0185315,-0.0540945 0.0294409,-0.107429 0.0318622,-0.160161 0.00272441,-0.0524921 0.00096063,-0.104366 -0.00555512,-0.155291 -0.00620472,-0.050689 -0.0134685,-0.100657 -0.0214213,-0.149098 -0.00826378,-0.048685 -0.0135315,-0.096063 -0.0157953,-0.142142 -0.00282677,-0.0459961 0.00133858,-0.0906732 0.011378,-0.133862 0.0103583,-0.0429488 0.0305827,-0.0843898 0.0607402,-0.123772 0.0375276,-0.0475512 0.072748,-0.0747402 0.106795,-0.0817244 0.0337913,-0.00666535 0.0670906,0.00277559 0.0997126,0.0292047 0.0336181,0.0251457 0.0509331,0.0551142 0.0527598,0.0895118 0.0015748,0.0347165 -0.0161496,0.0755315 -0.0530551,0.123571l-0.0434606 0.055815 0.194969 0.151803 0.0329685 -0.0423425c0.0561969,-0.0721772 0.0923386,-0.142445 0.109055,-0.210327 0.0164055,-0.0681181 0.0120709,-0.132807 -0.012189,-0.194465 -0.0245157,-0.0613346 -0.0701969,-0.118031 -0.136811,-0.170417 -0.0671142,-0.0517362 -0.133283,-0.0821299 -0.198756,-0.0908583 -0.0657244,-0.00840551 -0.129496,0.00325197 -0.19152,0.0358504 -0.0617087,0.0328543 -0.120972,0.0851181 -0.177169,0.157291l0 0zm1.43654 0.599146l-0.301819 -0.235 -1.25896 1.18379 0.189343 0.147425 0.225937 -0.216697 0.253075 0.197047 -0.154701 0.272165 0.208091 0.16202 0.839039 -1.51075zm-0.347043 0.113134l-0.431134 0.758693 -0.198717 -0.15472 0.62985 -0.603972zm-0.39639 1.47206l0.545528 0.424752 0.149858 -0.192469 -0.339311 -0.264193 0.899146 -1.1548 -0.206217 -0.160563 -1.049 1.34727zm1.74087 -0.499421l0.356181 0.277327 0.149858 -0.192469 -0.562398 -0.43789 -1.049 1.34727 0.562398 0.43789 0.149858 -0.192469 -0.356185 -0.277331 0.307209 -0.394555 0.283071 0.220406 0.149858 -0.192469 -0.283071 -0.220406 0.29222 -0.375307z"/>
 </g>
</svg>
